<svg xmlns="http://www.w3.org/2000/svg" width="24" height="24"><!--Boxicons v3.0 https://boxicons.com | License  https://docs.boxicons.com/free--><path d="M21.94 17.56s-.01-.08-.02-.12a10 10 0 0 0-1-2.99c-.48-.92-1.1-1.76-1.83-2.49a10.4 10.4 0 0 0-1.77-1.41s0-.01.01-.02c.2-.35.4-.7.61-1.05l.59-1.02c.14-.24.28-.49.42-.73.14-.25.16-.55.05-.82a.93.93 0 0 0-.38-.43c-.12-.07-.25-.11-.39-.13h-.17c-.29.03-.55.2-.7.45-.14.24-.28.49-.42.73l-.59 1.02c-.2.35-.4.7-.61 1.05-.02.04-.04.08-.07.11-.03-.01-.06-.02-.09-.04-1.11-.42-2.32-.66-3.58-.66h-.1a10 10 0 0 0-3.55.69c-.02-.04-.04-.07-.06-.11-.2-.35-.4-.7-.61-1.05l-.59-1.02c-.14-.24-.28-.49-.42-.73a.9.9 0 0 0-.87-.45c-.14.01-.27.05-.39.13-.13.08-.24.19-.32.32l-.06.12c-.09.2-.1.43-.03.64.02.06.05.12.08.18.14.24.28.49.42.73.2.34.39.68.59 1.02.2.35.4.7.61 1.05-.41.25-.79.53-1.16.84-.66.55-1.24 1.18-1.73 1.88a10 10 0 0 0-1.73 4.18c0 .04-.01.08-.02.12l-.06.44h20l-.06-.44ZM8.13 14.82c-.33.49-.92.68-1.32.41s-.46-.88-.13-1.38c.33-.49.92-.68 1.32-.41s.46.88.13 1.38m9.07.41c-.4.27-.99.08-1.32-.41s-.27-1.11.13-1.38.99-.08 1.32.41.27 1.11-.13 1.38"/></svg>