<svg xmlns="http://www.w3.org/2000/svg" width="24" height="24"><!--Boxicons v3.0 https://boxicons.com | License  https://docs.boxicons.com/free--><path d="M12 8.07v-.01c-.01 0-.03.02-.04.03h.02ZM11.98 20.58h.01s.02-.03.03-.04c-.02 0-.03.02-.05.04ZM12.01 20.7s-.03-.02-.05-.02c.01 0 .03.01.04.02ZM14.26 20.04c.23-.21.37-.51.4-.82l.78-8.29c-.35-.12-.7-.2-1.1-.2-.69 0-1.24.24-1.88.51-.72.31-1.53.66-2.59.66-.44 0-.88-.06-1.31-.18l.73 7.5c.03.31.17.61.4.82s.53.33.85.33c0 0 1.04.05 1.38.05.37 0 1.49-.05 1.49-.05.31 0 .62-.12.85-.33M12.01 8.05l-.02-.02H12v.02Z"/><path d="M18.74 6.79c-.1-.5-.32-.97-.83-1.15-.16-.06-.35-.08-.48-.2s-.16-.3-.19-.48c-.05-.32-.1-.63-.16-.94-.05-.27-.09-.57-.21-.82-.16-.33-.5-.53-.83-.66-.17-.06-.34-.12-.52-.16-.83-.22-1.71-.3-2.56-.35-1.03-.06-2.06-.04-3.08.05-.76.07-1.57.15-2.29.42-.27.1-.54.21-.74.42-.25.25-.33.64-.15.95.13.22.35.38.58.48.3.13.61.24.94.3.9.2 1.82.28 2.74.31 1.01.04 2.03 0 3.04-.1.25-.03.5-.06.75-.1.29-.04.48-.43.39-.7-.1-.32-.38-.44-.7-.39-.05 0-.09.01-.14.02h-.03c-.11.02-.21.03-.32.04l-.66.06c-.49.03-.99.05-1.49.05-.49 0-.97-.01-1.46-.05q-.33-.015-.66-.06l-.3-.03h-.1l-.02-.02h-.1l-.6-.12c-.02 0-.04-.02-.05-.03-.01-.02-.02-.04-.02-.06s0-.04.02-.06c.01-.02.03-.03.05-.03.17-.04.35-.07.52-.1.06 0 .12-.02.18-.03.11 0 .22-.03.33-.04.95-.1 1.9-.13 2.85-.1.46.01.92.04 1.39.09l.3.03c.04 0 .08 0 .11.01h.08c.22.04.44.08.66.13.33.07.75.09.89.45.05.11.07.24.09.36l.03.15c.08.36.15.72.23 1.08v.08c0 .03-.02.05-.03.07s-.04.04-.06.06c-.02.01-.05.02-.08.03H16l-.05.01c-.15.02-.3.04-.44.05l-.87.09q-.87.075-1.74.09c-.3 0-.59.01-.89.01-1.18 0-2.36-.07-3.53-.21-.12-.01-.24-.03-.36-.04-.02 0-.11-.01-.13-.02-.08-.01-.16-.02-.24-.04-.27-.04-.54-.09-.81-.13-.33-.05-.64-.03-.94.13-.24.13-.44.34-.56.58-.13.26-.17.55-.22.83-.06.28-.15.59-.11.88.07.63.51 1.14 1.14 1.25a32.951 32.951 0 0 0 8.88.37l.58-.06c.06 0 .12 0 .18.02s.11.05.15.09.08.09.1.15.03.12.02.18l-.06.58-.36 3.52c-.13 1.23-.25 2.46-.38 3.7-.04.35-.07.69-.11 1.04-.03.34-.04.69-.1 1.03-.1.53-.46.86-.99.98-.48.11-.97.17-1.46.17-.55 0-1.09-.02-1.64-.02-.58 0-1.3-.05-1.75-.48-.4-.38-.45-.98-.5-1.49l-.21-2.05-.4-3.8-.26-2.46s0-.08-.01-.12c-.03-.29-.24-.58-.57-.57-.28.01-.6.25-.57.57l.19 1.82.39 3.77.33 3.21.06.62c.12 1.12.98 1.72 2.04 1.89.62.1 1.25.12 1.88.13.81.01 1.62.04 2.41-.1 1.17-.22 2.05-1 2.18-2.21.04-.35.07-.7.11-1.05l.36-3.48.39-3.79.18-1.74c0-.09.05-.17.1-.23s.14-.11.22-.12c.34-.07.66-.18.89-.43.38-.41.46-.94.32-1.47l-.11-.56ZM6.26 7.97s.01 0 .02.02zm11.36.01c-.12.11-.3.17-.48.19-2.01.3-4.05.45-6.09.38-1.46-.05-2.9-.21-4.34-.42-.14-.02-.29-.05-.39-.15-.06-.06-.08-.14-.1-.23v.01-.01c-.03-.2.02-.43.05-.6.04-.22.13-.51.39-.54.4-.05.87.12 1.27.18.48.07.96.13 1.45.18 2.07.19 4.17.16 6.23-.12.38-.05.75-.11 1.12-.18.33-.06.7-.17.9.17.14.23.16.55.13.81 0 .12-.06.22-.14.3Z"/><path d="M6.22 7.77c0-.02.01-.05 0-.05z"/></svg>