<svg xmlns="http://www.w3.org/2000/svg" width="24" height="24"><!--Boxicons v3.0 https://boxicons.com | License  https://docs.boxicons.com/free--><path d="M18.002 2.997H5.999A3.01 3.01 0 0 0 2.997 6v12.002a3.01 3.01 0 0 0 3.002 3.001h12.003a3.01 3.01 0 0 0 3.001-3.001V6a3.01 3.01 0 0 0-3.001-3.003m-1.64 12.647c-.152.36-.389.68-.693.927a3.6 3.6 0 0 1-1.206.614q-.735.228-1.75.229H7.888V6.909h5.103q1.415-.002 2.267.646c.569.436.854 1.082.854 1.958q0 .794-.389 1.357-.389.56-1.111.868v.034c.642.135 1.137.438 1.464.912q.492.71.493 1.789c0 .405-.078.788-.225 1.147l.02.021v.003zm-2.084-2.589q-.462-.421-1.297-.419H9.737v3.276h3.253c.554 0 .991-.144 1.298-.435q.463-.435.464-1.229c-.005-.518-.156-.919-.464-1.193h-.014zm-.451-2.119c.299-.251.444-.613.444-1.084 0-.526-.131-.902-.397-1.116-.264-.214-.646-.326-1.146-.326H9.727v2.898h3.001c.436.001.81-.127 1.099-.372"/></svg>