<svg xmlns="http://www.w3.org/2000/svg" width="24" height="24"><!--Boxicons v3.0 https://boxicons.com | License  https://docs.boxicons.com/free--><path d="M6.34 4.38C8.63 6.1 11.1 9.59 12 11.46c.91-1.87 3.37-5.36 5.66-7.08 1.65-1.24 4.34-2.2 4.34.86 0 .61-.35 5.13-.56 5.86-.71 2.55-3.32 3.2-5.63 2.81 4.04.69 5.07 2.97 2.85 5.25-4.22 4.33-6.07-1.09-6.54-2.47-.09-.25-.13-.37-.13-.27 0-.1-.04.02-.13.27-.47 1.39-2.32 6.81-6.54 2.47-2.22-2.28-1.19-4.56 2.85-5.25-2.31.39-4.92-.26-5.63-2.81-.21-.73-.56-5.25-.56-5.86 0-3.06 2.68-2.1 4.34-.85Z"/></svg>