<svg xmlns="http://www.w3.org/2000/svg" width="24" height="24"><!--Boxicons v3.0 https://boxicons.com | License  https://docs.boxicons.com/free--><path d="M6.13 10.67c.42.24.57.77.33 1.19l-2.82 4.92c-.24.42-.78.57-1.2.33a.87.87 0 0 1-.33-1.19L4.93 11c.24-.42.78-.57 1.2-.33m6.08-3.77c.42.24.57.77.33 1.19l-2.82 4.92c-.24.42-.78.57-1.2.33a.87.87 0 0 1-.33-1.19l2.82-4.92c.24-.42.78-.57 1.2-.33m9.35 0c.42.24.57.77.33 1.19l-2.82 4.92c-.24.42-.78.57-1.2.33a.87.87 0 0 1-.33-1.19l2.82-4.92c.24-.42.78-.57 1.2-.33m-6.08 3.77c.42.24.57.77.33 1.19l-2.82 4.92c-.24.42-.78.57-1.2.33a.87.87 0 0 1-.33-1.19L14.28 11c.24-.42.78-.57 1.2-.33"/></svg>