<svg xmlns="http://www.w3.org/2000/svg" width="24" height="24"><!--Boxicons v3.0 https://boxicons.com | License  https://docs.boxicons.com/free--><path d="M14.82 4.26a10 10 0 0 0-.53 1.1 14.7 14.7 0 0 0-4.58 0 10 10 0 0 0-.53-1.1 16 16 0 0 0-4.13 1.3 17.33 17.33 0 0 0-3 11.59 16.6 16.6 0 0 0 5.07 2.59A13 13 0 0 0 8.23 18a9.7 9.7 0 0 1-1.71-.83 3.4 3.4 0 0 0 .42-.33 11.66 11.66 0 0 0 10.12 0q.21.18.42.33a11 11 0 0 1-1.71.84 12.4 12.4 0 0 0 1.08 1.78 16.4 16.4 0 0 0 5.06-2.59 17.22 17.22 0 0 0-3-11.59 16 16 0 0 0-4.09-1.35M8.68 14.81a1.94 1.94 0 0 1-1.8-2 1.93 1.93 0 0 1 1.8-2 1.93 1.93 0 0 1 1.8 2 1.93 1.93 0 0 1-1.8 2m6.64 0a1.94 1.94 0 0 1-1.8-2 1.93 1.93 0 0 1 1.8-2 1.92 1.92 0 0 1 1.8 2 1.92 1.92 0 0 1-1.8 2"/></svg>