<svg xmlns="http://www.w3.org/2000/svg" width="24" height="24"><!--Boxicons v3.0 https://boxicons.com | License  https://docs.boxicons.com/free--><path d="m13.78 16.92 3.35-4.54.42.55 2.87 4a1.26 1.26 0 0 0 1.58.6l-4-5.33a.56.56 0 0 1 0-.82l2.1-2.74 1.55-2a1.18 1.18 0 0 0-1.49.55l-3 4-3-4a1.31 1.31 0 0 0-1.58-.55l4 5.2-4.29 5.77a1.23 1.23 0 0 0 1.49-.69M9.93 7.19a4.81 4.81 0 0 0-7.57 2.73L2 11.65v1a5 5 0 0 1 .11.57 5.42 5.42 0 0 0 1.37 3.2 5.24 5.24 0 0 0 6.09.78 4.49 4.49 0 0 0 2.15-3.3c-.52-.16-.81-.07-1 .49a3.36 3.36 0 0 1-2.15 2.39c-3.25 1.09-5.8-1.05-5.66-4.59h8.9c.1-2-.3-3.76-1.88-5m-7 4.22C3 8.77 4.76 7 7.16 7c2.18 0 3.77 1.84 3.83 4.4z"/></svg>