<svg xmlns="http://www.w3.org/2000/svg" width="24" height="24"><!--Boxicons v3.0 https://boxicons.com | License  https://docs.boxicons.com/free--><path d="M21.37 7.41 22 5.78l-.03-.1-6.23 1.64c.66-.96.44-1.73.44-1.73s-1.99 1.27-3.49 1.24-1.99-.43-4.3.3c-2.31.74-2.96 2.99-3.63 3.48s-2.77 2.06-2.77 2.06v.03l1.9-.6s-.52.49-1.62 1.97l-.05-.05s.89 1.36 1.75 1.11c.09-.03.19-.07.29-.12.35.19.81.39 1.31.44 0 0-.34-.4-.63-.85l.24-.15-.04.03.72.26-.08-.68.71.26-.09-.62c.09-.05.18-.09.27-.13l.74-2.79 3.05-2.08-.24.61c-.62 1.52-1.78 1.88-1.78 1.88l-.48.18c-.36.43-.51.53-.64 1.96.29-.07.57-.09.82-.02 1.3.35 1.75 1.92 1.4 2.36-.09.11-.3.29-.56.51h-.53v.43s-.04.03-.06.04h-.54v.42c-.05.04-.1.07-.15.11-.51.01-1.15-.43-1.15-.43 0 .4.33 1.02.33 1.02l.06-.03c-.03.02-.05.04-.05.04s1.35.9 2.21.57c.76-.3 2.72-1.84 4.41-2.58l5.13-1.35.68-1.75-3.91 1.03v-1.57l4.58-1.21.68-1.75-5.26 1.39V8.99l5.93-1.56Z"/></svg>