<svg xmlns="http://www.w3.org/2000/svg" width="24" height="24"><!--Boxicons v3.0 https://boxicons.com | License  https://docs.boxicons.com/free--><path d="M3 3v18h18V3zm11.72 13.37c-.41.38-.82.66-1.33.87l-.21.09c-.83.3-1.82.21-2.63-.1-.45-.21-.82-.46-1.19-.8.33-.41.66-.75 1.07-1.07l.27.21c.5.35 1 .47 1.61.41.62-.12 1.12-.4 1.52-.9.37-.61.41-1.09.41-1.8V10.4c0-.72-.15-1.18-.6-1.74-.61-.49-1.17-.74-1.96-.7-.66.11-1.19.42-1.59.95-.33.53-.48 1.07-.37 1.69.2.68.45 1.25 1.07 1.61.52.27.98.32 1.56.33h.25c.2.02.4.02.61.03V14c-1.49.06-2.65.06-3.84-.97a4.22 4.22 0 0 1-1.23-2.8c.04-.88.35-1.6.86-2.32l.15-.23c1.43-1.51 3.7-1.61 5.31-.31l.17.14c.58.52.96 1.25 1.08 2.01 0 .16.01.33.01.49v3.6c0 1.05-.3 1.95-1.02 2.74Z"/></svg>