<svg xmlns="http://www.w3.org/2000/svg" width="24" height="24"><!--Boxicons v3.0 https://boxicons.com | License  https://docs.boxicons.com/free--><path d="M19.17 2H4.83A1.79 1.79 0 0 0 3 3.8v16.4A1.79 1.79 0 0 0 4.83 22h14.34A1.8 1.8 0 0 0 21 20.2V3.8A1.8 1.8 0 0 0 19.17 2M20 20.2a.8.8 0 0 1-.81.8H4.83a.79.79 0 0 1-.8-.8V3.8a.79.79 0 0 1 .8-.8h14.34a.8.8 0 0 1 .81.8z"/><path d="m7.53 19 2.25-2-2.25-2zm5.69-9a12 12 0 0 0-3.75.7V5h-2v8.65L8.88 13a12.3 12.3 0 0 1 4.29-1c1 0 1.25.55 1.25 1.05v6h2V13a2.68 2.68 0 0 0-.8-2.1 3.27 3.27 0 0 0-2.4-.9M13 8.25h2A5.9 5.9 0 0 0 16.47 5h-2A7.2 7.2 0 0 1 13 8.25"/></svg>