<svg xmlns="http://www.w3.org/2000/svg" width="24" height="24"><!--Boxicons v3.0 https://boxicons.com | License  https://docs.boxicons.com/free--><path d="m13.56 9.45.91-.85V7.57l-1.65 1.88zm.09 4.79c.04.04.1.05.15.01l.67-.48v-.56l-.8.68a.3.3 0 0 0-.02.35m-2.06-3.32c.02.11.2.2.29.11l.08-.07v-.52l-.34.38s-.04.07-.03.11Zm4.62-3.68c.19 0 .37.08.51.21.27.29.26.76-.04 1.03l-1 .97h1.3V7.02h-2.21c-.01.17-.09.34-.22.47v1.04l1.14-1.07c.14-.14.33-.21.52-.21Zm.77 5.13v-.33h-1.12l-1.31 1.11v.57l1.64-1.19c.16-.11.52-.3.79-.16m-4.01 0c.05.06.14.07.21.02l.46-.36h-.63l-.06.06c-.06.08-.06.2.02.27Zm-.22-2.84-.71.81v.54l1.44-1.35zm.99 2.43.73-.57v-.76l-1.37 1.33zM9.27 9.64l-.7 1.56c-.06.07-.04.18.03.23.11.09.35.08.5-.07l.35-.39V9.52h-.12s-.04.07-.06.11Zm-2.25 1.12c.17-.43.36-.87.51-1.23h-.51zm2.51-1.23v1.36l1.23-1.36zm7.45.07v-.07H15.6l-1.05 1.02v.78l1.93-1.51c.16-.14.34-.22.51-.22Zm-4.94-2.58v1.1l.99-1.1zm4.94 4.94v-.87l-1.03.87zM7.02 4.51h2.43v2.43H7.02zm12.55 7.53H22v2.43h-2.43zm-2.51-7.53h2.43v2.43h-2.43zM2 14.55h2.43v2.43H2zm17.57-7.53v2.43H22V7.02zm0 2.51H22v2.43h-2.43zm-2.51.08c.14.02.27.08.38.2.25.28.21.7-.11.98l-.27.23v.94h2.43V9.53h-2.43zM4.51 11.96h2.05c.1-.27.24-.63.39-1V9.53H4.52v2.43Zm0 2.59v2.43h2.43v-1.79a3.6 3.6 0 0 1-.29-.64zm2.02-2.51H4.51v2.43h2.11c-.31-.92-.29-1.82-.09-2.43m10.45 2.43v-1.11l-.06.06-1.26 1.05zm.08-2.05s.06.06.09.1c.21.3.08.58-.09.76v1.19h2.43v-2.43h-2.43zm-2.51 4.64h2.43v2.43h-2.43zM4.51 19.49h2.43v-2.43H4.51zM2 12.04h2.43v2.43H2zm0-2.59h2.43V7.02H2zm0 .08h2.43v2.43H2zm2.51-2.51h2.43v2.43H4.51zM9.53 2h2.43v2.43H9.53zM7.02 4.43h2.43V2H7.02zm0 15.14V22h2.43v-2.43zM4.51 4.51h2.43v2.43H4.51zm12.55 10.04h2.43v2.43h-2.43zm0 4.94h2.43v-2.43h-2.43zm2.51-4.94H22v2.43h-2.43zm-5.02 5.02V22h2.43v-2.43zm-5.02 0h2.43V22H9.53zm2.51 0h2.43V22h-2.43zm0-12.63h1.07l.42-.46.04-.04c.25-.23.63-.25.9-.06V4.51h-2.43zm4.94 7.61h-1.41l-1.02.85v1.58h2.43zm-2.21-7.61h2.21V4.51h-2.43v1.93s.03.02.04.04c.12.13.18.3.19.46Zm-2.14 10.04h1.84v-1.52l-1.7 1.42s-.09.07-.14.1m-3.1-7.53h1.3l1.13-1.24V7.02H9.53zm-2.51 0h.54c.17-.41.3-.7.3-.7a1 1 0 0 1 .58-.45c.22-.07.45-.04.64.07.04.03.09.06.12.1.24.23.3.62.15.98h.09V7.02H7.01v2.43Zm0 7.53H8.7c-.35-.21-.69-.46-1-.77-.28-.28-.5-.57-.68-.88zm10.04-9.96h2.43v2.43h-2.43zM12.04 2h2.43v2.43h-2.43zm2.51 2.43h2.43V2h-2.43zm-2.51 12.89v2.17h2.43v-2.43h-1.95c-.15.1-.31.19-.48.26m-2.51.04v2.13h2.43v-2.14c-.74.29-1.6.28-2.43 0Zm-2.51-.3v2.43h2.43v-2.16c-.2-.07-.41-.16-.61-.27zM9.53 4.51h2.43v2.43H9.53z"/></svg>