<svg xmlns="http://www.w3.org/2000/svg" width="24" height="24"><!--Boxicons v3.0 https://boxicons.com | License  https://docs.boxicons.com/free--><path d="m13.48 7.37-.02-5.38h-3l.02 5.38 1.5 2.06zm-3 9.22v5.4h3v-5.4l-1.5-2.06z"/><path d="m13.48 16.6 3.16 4.36 2.42-1.76-3.16-4.36-2.42-.78zm-3-9.22L7.3 3.02 4.88 4.78l3.16 4.36 2.44.78z"/><path d="M8.04 9.14 2.92 7.48 2 10.32 7.12 12l2.42-.8zm6.36 3.64 1.5 2.06 5.12 1.66.92-2.84L16.82 12zm2.42-.78 5.12-1.68-.92-2.84-5.12 1.66-1.5 2.06zm-9.7 0L2 13.66l.92 2.84 5.12-1.66 1.5-2.06zm.92 2.84L4.88 19.2l2.42 1.76 3.18-4.36v-2.54zm7.86-5.7 3.16-4.36-2.42-1.76-3.16 4.36v2.54z"/></svg>