<svg xmlns="http://www.w3.org/2000/svg" width="24" height="24"><!--Boxicons v3.0 https://boxicons.com | License  https://docs.boxicons.com/free--><path d="M19.58 11.375c.008-.117.018-.231.018-.35 0-3.243-2.668-5.871-5.959-5.871A5.97 5.97 0 0 0 8.26 8.502a2.73 2.73 0 0 0-1.674-.568c-1.521 0-2.752 1.21-2.752 2.704q.001.426.125.808a3.96 3.96 0 0 0-1.98 3.418c0 2.173 1.773 3.938 3.975 3.972h11.898c.074 0 .15.012.227.012 2.178 0 3.943-1.739 3.943-3.893a3.885 3.885 0 0 0-2.432-3.579h-.01zM7.355 15.842a2.33 2.33 0 0 1-.748-1.318 3 3 0 0 1-.053-.544q0-1.108.809-1.827.806-.721 2.049-.722c.854 0 1.654.32 2.363.957.176.158.352.338.514.536l.912 1.071c.158.217.324.399.5.56.471.422.977.632 1.408.632q.548 0 .912-.336c.209-.19.336-.45.363-.73l.008-.123a1 1 0 0 0-.055-.347 1.275 1.275 0 0 0-1.238-.838c-.453 0-.902.153-1.396.631l-.807-.95-.088-.108c.713-.691 1.414-.95 2.367-.95.838 0 1.525.237 2.037.712l.014.014c.539.474.801 1.089.801 1.842a2.6 2.6 0 0 1-.049.528 2.38 2.38 0 0 1-.74 1.301 2.7 2.7 0 0 1-1.428.677 5 5 0 0 1-.588.038c-.863 0-1.676-.313-2.365-.938a5 5 0 0 1-.537-.576l-.914-1.065a3.6 3.6 0 0 0-.488-.563c-.463-.425-.977-.626-1.428-.626q-.194 0-.389.051a1.2 1.2 0 0 0-.523.289c-.232.216-.365.52-.365.839 0 .324.113.6.352.825l.014.013c.25.227.563.338.926.338.463 0 .914-.162 1.4-.639l.801.938.088.099c-.725.703-1.428.965-2.342.965-.838 0-1.525-.238-2.051-.713z"/></svg>