<svg xmlns="http://www.w3.org/2000/svg" width="24" height="24"><!--Boxicons v3.0 https://boxicons.com | License  https://docs.boxicons.com/free--><path d="M12.36 7.74c-.06-.19-.12-.2-.16-.21-.12-.02-.27.15-.35.26-.65.89-1 3.09-.94 4.94 1.14-2.08 1.71-4.16 1.45-5Z" class="b"/><path d="M15.78 3H8.21C5.33 3 2.99 5.34 2.99 8.22v7.57c0 2.88 2.34 5.22 5.22 5.22h7.57c2.88 0 5.22-2.34 5.22-5.22V8.22C21 5.34 18.66 3 15.78 3m-.13 12.41c-.55 1.38-1.5 2.2-2.61 2.27h-.14c-.99 0-1.95-.64-2.6-1.74-.27.32-.54.63-.82.91-.13.13-.29.19-.46.19s-.33-.06-.46-.19a.66.66 0 0 1 0-.92c.44-.44.85-.93 1.23-1.44-.18-.87-.24-1.95-.17-3.11.11-1.87.55-3.5 1.16-4.34.6-.83 1.29-.84 1.65-.77h.03c.55.11.96.5 1.14 1.1.48 1.57-.64 4.78-2.4 7.39.05.16.11.31.18.44 0 .02.02.04.03.05.43.75 1.01 1.17 1.56 1.14.58-.03 1.12-.56 1.47-1.45.13-.33.51-.5.85-.36.33.13.5.51.36.85Z" class="b"/></svg>