<svg xmlns="http://www.w3.org/2000/svg" width="24" height="24"><!--Boxicons v3.0 https://boxicons.com | License  https://docs.boxicons.com/free--><path d="M12 2C6.48 2 2 6.48 2 12s4.48 10 10 10 10-4.48 10-10S17.52 2 12 2M7.24 14.8c-1.55 0-2.8-1.25-2.8-2.8s1.26-2.8 2.8-2.8c1 0 1.88.53 2.37 1.33-.27.43-.42.93-.42 1.47s.15 1.04.42 1.47c-.49.79-1.37 1.33-2.37 1.33m4.76 0c-1.01 0-1.88-.53-2.37-1.33.27-.43.42-.93.42-1.47s-.15-1.04-.42-1.47C10.12 9.74 11 9.2 12 9.2s1.88.53 2.37 1.33c-.27.43-.42.93-.42 1.47s.15 1.04.42 1.47c-.49.79-1.37 1.33-2.37 1.33m4.76 0c-1.01 0-1.88-.53-2.37-1.33.27-.43.42-.93.42-1.47s-.15-1.04-.42-1.47c.49-.79 1.37-1.33 2.37-1.33 1.55 0 2.8 1.25 2.8 2.8s-1.26 2.8-2.8 2.8" class="b"/></svg>