<svg xmlns="http://www.w3.org/2000/svg" width="24" height="24"><!--Boxicons v3.0 https://boxicons.com | License  https://docs.boxicons.com/free--><path d="M11.454 17.021q.073.062.151.122a6.17 6.17 0 0 1-3.42 1.03A6.17 6.17 0 0 1 2.01 12a6.175 6.175 0 0 1 9.592-5.144c-.05.043-.1.082-.138.126A6.63 6.63 0 0 0 9.166 12c0 1.925.833 3.755 2.288 5.021m4.361-11.195a6.14 6.14 0 0 0-3.416 1.03c.049.043.099.082.137.126 1.462 1.263 2.299 3.094 2.299 5.018s-.835 3.753-2.288 5.021q-.075.062-.151.122a6.16 6.16 0 0 0 3.418 1.03 6.174 6.174 0 1 0 .001-12.347M12 7.15A6.15 6.15 0 0 0 9.644 12 6.15 6.15 0 0 0 12 16.853 6.16 6.16 0 0 0 14.357 12 6.15 6.15 0 0 0 12 7.15"/></svg>