<svg xmlns="http://www.w3.org/2000/svg" width="24" height="24"><!--Boxicons v3.0 https://boxicons.com | License  https://docs.boxicons.com/free--><path d="M21.65 9.04c.12 0 .24.02.35.05v-.61c-.1 0-.21-.01-.31-.01h-.02c-.55 0-1.22.13-1.7.37-.54.25-1.02.63-1.42 1.12-.64.8-1.03 1.87-1.13 3.08v.73c.06 2.74 1.54 4.93 4.17 4.93.15 0 .29 0 .43-.02v-2.22c-1.37-.4-2.35-1.92-2.25-3.71s2.25 0 2.25 0v-.52h-2.2c.08-1.84.74-3.17 1.85-3.19Z"/><path d="M16.42 17.22V6.73c0-.87.37-1.12 1.09-1.28h.02V5.3h-3.95l-3.66 8.61L6.26 5.3H2v.15h.02c.72.17 1.09.41 1.09 1.28v10.23c0 .87-.37 1.12-1.09 1.28H2v.15h2.88v-.15h-.02c-.72-.17-1.09-.41-1.09-1.28V7.32l4.71 11.07h.27l4.84-11.38v10.2c-.06.69-.42.9-1.08 1.05h-.02v.15h5.02v-.15h-.02c-.65-.15-1.02-.36-1.09-1.06Z"/></svg>