<svg xmlns="http://www.w3.org/2000/svg" width="24" height="24"><!--Boxicons v3.0 https://boxicons.com | License  https://docs.boxicons.com/free--><path d="m14.7 2.05-11.07.82c-.89.08-1.2.66-1.2 1.36v12.13c0 .54.19 1.01.66 1.63l2.6 3.38c.43.54.82.66 1.63.62l12.85-.78c1.09-.08 1.4-.58 1.4-1.44V6.13c0-.44-.17-.57-.69-.95l-.09-.06-3.53-2.49c-.85-.62-1.2-.7-2.56-.58M7.61 5.91c-1.05.07-1.29.09-1.88-.4L4.21 4.3c-.15-.16-.08-.35.31-.39l10.64-.78c.89-.08 1.36.23 1.71.51l1.82 1.32c.08.04.27.27.04.27l-10.99.66H7.6ZM6.39 19.67V8.08c0-.51.16-.74.62-.78l12.62-.74c.43-.04.62.23.62.74v11.51c0 .51-.08.93-.78.97l-12.08.7c-.7.04-1.01-.19-1.01-.82ZM18.31 8.7c.08.35 0 .7-.35.74l-.58.12v8.55c-.51.27-.97.43-1.36.43-.62 0-.78-.19-1.24-.78l-3.81-5.99v5.79l1.2.27s0 .7-.97.7l-2.68.16c-.08-.16 0-.54.27-.62l.7-.19v-7.66l-.97-.08c-.08-.35.12-.86.66-.89l2.87-.19 3.96 6.07V9.76L15 9.64c-.08-.43.23-.74.62-.78l2.68-.16Z"/></svg>