<svg xmlns="http://www.w3.org/2000/svg" width="24" height="24"><!--Boxicons v3.0 https://boxicons.com | License  https://docs.boxicons.com/free--><path d="M19.554 9.488q.18.844-.04 2.051-.873 4.467-5.683 4.466h-.442a.67.67 0 0 0-.444.166.72.72 0 0 0-.239.427l-.041.189-.553 3.479-.021.151a.7.7 0 0 1-.247.426.67.67 0 0 1-.447.166H8.874a.4.4 0 0 1-.331-.15.46.46 0 0 1-.09-.363q.09-.561.267-1.689.175-1.126.267-1.689c.092-.563.15-.938.272-1.685q.182-1.122.271-1.685.05-.371.433-.371h1.316q1.338.02 2.375-.211 1.758-.392 2.886-1.449 1.026-.956 1.56-2.473.241-.706.352-1.338.009-.062.025-.074.014-.016.035-.011a.4.4 0 0 1 .062.035c.524.398.854.941.98 1.632m-1.728-2.836q0 1.075-.465 2.374-.804 2.343-3.037 3.168-1.136.401-2.535.425 0 .008-.904.007l-.903-.007q-1.008-.001-1.187.964-.02.08-.855 5.329-.012.1-.121.102H4.854a.47.47 0 0 1-.369-.165.47.47 0 0 1-.115-.39L6.702 3.664a.78.78 0 0 1 .276-.483.8.8 0 0 1 .519-.19h6.014q.342 0 .979.131c.428.084.801.194 1.123.321q1.077.412 1.645 1.237t.568 1.972"/></svg>