<svg xmlns="http://www.w3.org/2000/svg" width="24" height="24"><!--Boxicons v3.0 https://boxicons.com | License  https://docs.boxicons.com/free--><path d="M2.41 15.55c-.75.5-.5 1.45 1.1 1.9 1.65.55 3.45.7 5.2.4.1 0 .2-.05.25-.05v-1.7l-1.7.55c-.65.2-1.3.25-1.95.1-.5-.15-.4-.45.2-.7l3.45-1.2V13l-4.8 1.65c-.6.2-1.2.5-1.75.9M14 8.05v4.85c2.05 1 3.65 0 3.65-2.6s-.95-3.85-3.7-4.8C12.5 5 11 4.55 9.5 4.25v14.44l3.5 1.05V7.6c0-.55 0-.95.4-.8.55.15.6.7.6 1.25m6.5 6.35c-1.45-.5-3-.7-4.5-.55-.8.05-1.55.25-2.25.5l-.15.05v1.95l3.25-1.2c.65-.2 1.3-.25 1.95-.1.5.15.4.45-.2.7l-5 1.85v1.9l6.9-2.55c.5-.2.95-.45 1.35-.85.35-.5.2-1.2-1.35-1.7"/></svg>