<svg xmlns="http://www.w3.org/2000/svg" width="24" height="24"><!--Boxicons v3.0 https://boxicons.com | License  https://docs.boxicons.com/free--><path d="M2.15 16.78h1.57a.14.14 0 0 0 .14-.12l.35-1.82h1.22a4.9 4.9 0 0 0 1.51-.2A2.8 2.8 0 0 0 8 14a3.2 3.2 0 0 0 .67-.85 3.4 3.4 0 0 0 .36-1 2.43 2.43 0 0 0-.41-2.16 2.64 2.64 0 0 0-2.09-.78h-3a.16.16 0 0 0-.15.13L2 16.6a.2.2 0 0 0 0 .13.17.17 0 0 0 .15.05M5 10.62h1a1.45 1.45 0 0 1 1.08.29c.17.18.2.52.11 1a1.8 1.8 0 0 1-.57 1.12 2.17 2.17 0 0 1-1.33.33h-.8zm9.8-.95a2.7 2.7 0 0 0-1.88-.51h-1.19l.33-1.76a.15.15 0 0 0 0-.13.16.16 0 0 0-.11 0h-1.57a.14.14 0 0 0-.14.12l-1.38 7.27a.13.13 0 0 0 0 .12.13.13 0 0 0 .11.06h1.54a.14.14 0 0 0 .14-.13l.77-4.07h1.11c.45 0 .61.1.66.16a.8.8 0 0 1 0 .62l-.61 3.24a.13.13 0 0 0 0 .12.14.14 0 0 0 .11.06h1.56a.16.16 0 0 0 .15-.13l.64-3.4a1.7 1.7 0 0 0-.24-1.64m4.52-.51h-3.13a.14.14 0 0 0-.15.13l-1.46 7.31a.16.16 0 0 0 0 .13.14.14 0 0 0 .11.05h1.63a.14.14 0 0 0 .15-.12l.37-1.82h1.27a5.3 5.3 0 0 0 1.56-.2 3 3 0 0 0 1.18-.64 3.3 3.3 0 0 0 .7-.85 3.5 3.5 0 0 0 .37-1 2.38 2.38 0 0 0-.42-2.16 2.8 2.8 0 0 0-2.18-.83m.62 2.77a1.83 1.83 0 0 1-.6 1.12 2.28 2.28 0 0 1-1.37.33h-.8l.54-2.76h1a1.6 1.6 0 0 1 1.13.29c.16.18.16.52.1 1.02"/></svg>