<svg xmlns="http://www.w3.org/2000/svg" width="24" height="24"><!--Boxicons v3.0 https://boxicons.com | License  https://docs.boxicons.com/free--><path d="M5.077 9.457q.001-1.169.404-2.199a5.6 5.6 0 0 1 1.121-1.802 7.6 7.6 0 0 1 1.644-1.329 7.5 7.5 0 0 1 2.002-.844 8.6 8.6 0 0 1 2.185-.281q1.708 0 3.182.721a6 6 0 0 1 2.391 2.094q.92 1.373.919 3.104 0 1.038-.207 2.031a8.3 8.3 0 0 1-.646 1.913 6.6 6.6 0 0 1-1.082 1.617 4.7 4.7 0 0 1-1.568 1.114 5 5 0 0 1-2.045.417q-.735 0-1.459-.346-.723-.344-1.036-.951-.108.421-.306 1.218-.194.795-.252 1.027-.06.232-.222.767a5 5 0 0 1-.281.769l-.344.674a8 8 0 0 1-.498.838q-.271.394-.672.935l-.149.053-.099-.108q-.161-1.7-.162-2.035 0-.994.235-2.233.231-1.238.72-3.109.487-1.87.561-2.196-.344-.701-.345-1.827 0-.897.562-1.688.563-.789 1.427-.789.661 0 1.028.439.367.437.366 1.109 0 .714-.476 2.066t-.476 2.022c0 .453.162.832.486 1.129a1.68 1.68 0 0 0 1.179.449q.593 0 1.104-.271a2.46 2.46 0 0 0 .849-.733 6.1 6.1 0 0 0 1.017-2.225q.146-.634.216-1.2.072-.568.07-1.077-.001-1.87-1.183-2.915-1.187-1.043-3.088-1.042-2.163 0-3.611 1.401-1.45 1.398-1.452 3.554.001.475.139.919.133.443.291.704c.104.171.202.338.291.492q.136.231.137.33 0 .303-.16.79-.165.487-.4.487-.023 0-.185-.034a2.2 2.2 0 0 1-.979-.605 3.2 3.2 0 0 1-.659-1.022 7 7 0 0 1-.352-1.169 5 5 0 0 1-.132-1.153"/></svg>