<svg xmlns="http://www.w3.org/2000/svg" width="24" height="24"><!--Boxicons v3.0 https://boxicons.com | License  https://docs.boxicons.com/free--><path d="m11.9 18.99-5.89-3.4a.24.24 0 0 1-.12-.21v-5.25c0-.09.1-.15.18-.1l6.84 3.95c.09.06.22-.01.22-.12V11.3c0-.1-.06-.2-.14-.25L4.74 6.29a.26.26 0 0 0-.24 0l-1.08.62c-.07.04-.12.12-.12.21v9.76c0 .09.05.16.12.21l8.45 4.88c.07.04.17.04.24 0l7.1-4.1a.15.15 0 0 0 0-.25L17 16.34a.3.3 0 0 0-.29 0l-4.58 2.65c-.07.04-.17.04-.24 0ZM20.57 6.91l-8.45-4.88a.26.26 0 0 0-.24 0L7.41 4.61a.15.15 0 0 0 0 .25L9.6 6.13c.09.05.2.05.29 0l2-1.15c.07-.04.17-.04.24 0l5.89 3.4c.07.04.12.12.12.21v5.28c0 .1.06.2.14.25l2.19 1.27c.09.06.22-.01.22-.12V7.12c0-.08-.05-.16-.12-.21"/></svg>