<svg xmlns="http://www.w3.org/2000/svg" width="24" height="24"><!--Boxicons v3.0 https://boxicons.com | License  https://docs.boxicons.com/free--><path d="M21.96 11.58c-.09-.45-.34-.87-.73-1.23-.66-.63-1.73-1.17-3.26-1.67a.6.6 0 0 0-.18-.04c.16-.59.27-1.12.34-1.62.16-1.22.04-2.2-.39-2.94-.26-.45-.62-.78-1.09-.94-.45-.15-.92-.13-1.44.02-.87.26-1.88.92-3.09 1.99l-.11.12c-.43-.42-.84-.79-1.23-1.09-.97-.75-1.88-1.14-2.73-1.14-.49-.01-.97.16-1.34.48-.36.34-.61.78-.7 1.26-.21.88-.14 2.09.18 3.67l.05.16c-.59.16-1.12.34-1.59.53-1.12.46-1.91 1.05-2.34 1.8-.26.45-.36.93-.26 1.41.09.45.34.87.73 1.23.66.62 1.73 1.16 3.26 1.67.06.02.13.04.2.04q-.24.915-.36 1.68c-.16 1.22-.04 2.2.39 2.94.26.45.62.78 1.09.94.45.15.92.13 1.44-.02.87-.26 1.88-.91 3.09-1.99.06-.05.12-.12.16-.19.43.43.85.8 1.24 1.11.97.75 1.88 1.14 2.73 1.14.5.01.98-.16 1.35-.48.36-.34.61-.78.7-1.26.21-.88.14-2.09-.18-3.67l-.06-.18c.57-.16 1.09-.33 1.54-.52 1.12-.47 1.91-1.05 2.34-1.8.26-.45.36-.94.26-1.41Zm-9.15-5.9.08-.06c2.13-1.83 3.52-2.19 4.16-1.09.62 1.07.39 3.02-.69 5.86-.06.15-.23.22-.38.15a.28.28 0 0 1-.13-.11l-.05-.09c-.87-1.51-1.87-2.94-3-4.26-.1-.12-.09-.29.02-.4Zm2.46 6.78-1.23 2.16c-.18.31-.52.51-.88.51h-2.47c-.36 0-.7-.2-.88-.51l-1.23-2.16a.99.99 0 0 1 0-1l1.23-2.17c.18-.31.52-.5.88-.5h2.47c.36 0 .7.19.88.5l1.23 2.16c.18.31.18.69 0 1Zm-7.22-8.6c1.24 0 2.81 1.18 4.72 3.53.1.12.08.31-.05.41-.05.04-.1.06-.16.06h-.11c-1.73-.01-3.46.14-5.16.45-.16.02-.3-.07-.33-.22S6.94 8 6.94 8c-.52-2.76-.16-4.14 1.1-4.14ZM6.1 14.39l-.08-.03c-2.63-.91-3.64-1.92-3.01-3.02C3.63 10.26 5.43 9.48 8.4 9c.08-.02.14 0 .2.03.13.08.18.26.1.39-.9 1.52-1.65 3.13-2.25 4.79-.05.14-.21.22-.35.18m5.08 3.92-.08.06c-2.13 1.83-3.52 2.19-4.16 1.09-.62-1.07-.39-3.02.69-5.86.06-.15.23-.22.38-.15.05.02.1.06.13.11l.05.09q1.305 2.265 3 4.26c.1.12.09.29-.02.4Zm4.88 1.78c-1.23 0-2.81-1.18-4.72-3.53a.289.289 0 0 1 .22-.47h.11c1.73.01 3.45-.14 5.15-.45.15-.02.29.08.33.22v.02l.02.08c.52 2.76.16 4.14-1.11 4.14ZM21 12.54c-.62 1.07-2.42 1.85-5.39 2.34a.287.287 0 0 1-.34-.23.34.34 0 0 1 .03-.2c.9-1.52 1.65-3.13 2.25-4.79.05-.14.2-.22.34-.18l.08.02c2.63.91 3.64 1.92 3.01 3.02Z"/></svg>