<svg xmlns="http://www.w3.org/2000/svg" width="24" height="24"><!--Boxicons v3.0 https://boxicons.com | License  https://docs.boxicons.com/free--><path d="M12.002 2.005 12 2.004c-5.52 0-9.996 4.475-9.996 9.995 0 5.521 4.477 9.998 9.996 9.998 5.521 0 9.996-4.475 9.996-9.997 0-5.52-4.475-9.995-9.994-9.995m.162 13.53a.27.27 0 0 1-.174.066v.001H6.455a.27.27 0 0 1-.266-.268V8.646c0-.148.119-.268.266-.268h2.589c1.612 0 2.576.87 2.576 2.327 0 .969-.486 1.729-1.272 2.039l1.842 2.413a.27.27 0 0 1-.026.378m3.695.068h-2.665a.27.27 0 0 1-.266-.269V8.646c0-.148.119-.267.266-.267h2.472c1.853 0 2.242 1.091 2.242 2.007q0 .794-.421 1.258c.681.28 1.047.913 1.047 1.827 0 1.335-1.001 2.132-2.675 2.132"/></svg>