<svg xmlns="http://www.w3.org/2000/svg" width="24" height="24"><!--Boxicons v3.0 https://boxicons.com | License  https://docs.boxicons.com/free--><path d="M15.09 11.65c-.65 0-1.15.69-1.11 1.53.04.85.53 1.15 1.18 1.15s1.23-.34 1.19-1.19-.6-1.5-1.26-1.5ZM14.31 15.1c-.72-.07-1.5-.11-2.31-.11s-1.59.04-2.31.11c-.12.01-.2.14-.15.25a2.666 2.666 0 0 0 4.92 0c.05-.11-.03-.24-.15-.25M10.03 13.18c.04-.85-.46-1.53-1.11-1.53s-1.22.65-1.26 1.5.53 1.19 1.19 1.19 1.14-.31 1.18-1.15Z"/><path d="M12 2C6.48 2 2 6.48 2 12c0 2.76 1.12 5.26 2.93 7.07l-1.9 1.9a.596.596 0 0 0 .42 1.02H12c5.52 0 10-4.48 10-10S17.52 2 12 2m6.67 11.77c-.07 2.71-3.03 4.9-6.66 4.9s-6.59-2.18-6.66-4.89a2.33 2.33 0 0 1-1.34-2.11c0-1.29 1.05-2.34 2.34-2.34.54 0 1.03.18 1.43.49 1.06-.66 2.4-1.08 3.87-1.14A2.69 2.69 0 0 1 14.05 6c.16-.76.83-1.33 1.63-1.33.92 0 1.67.75 1.67 1.67s-.75 1.67-1.67 1.67c-.79 0-1.45-.55-1.62-1.28-.96.14-1.69.96-1.69 1.95 1.48.06 2.83.48 3.91 1.14a2.343 2.343 0 0 1 3.76 1.86c0 .93-.55 1.73-1.33 2.11Z"/></svg>