<svg xmlns="http://www.w3.org/2000/svg" width="24" height="24"><!--Boxicons v3.0 https://boxicons.com | License  https://docs.boxicons.com/free--><path d="M8.21 17.32 7 16.8a2.13 2.13 0 1 0 1.17-2.93l1.28.53a1.58 1.58 0 0 1-1.22 2.92z"/><path d="M12 2a10 10 0 0 0-10 9.34l5.38 2.21a2.3 2.3 0 0 1 .47-.24A2.6 2.6 0 0 1 9 13.1l2.44-3.56a3.8 3.8 0 1 1 3.8 3.8h-.08l-3.51 2.5a2.77 2.77 0 0 1-5.47.68l-3.77-1.6A10 10 0 1 0 12 2"/><path d="M17.79 9.5a2.53 2.53 0 1 0-2.53 2.5 2.54 2.54 0 0 0 2.53-2.5m-4.42 0a1.9 1.9 0 1 1 1.9 1.91 1.9 1.9 0 0 1-1.9-1.92z"/></svg>