<svg xmlns="http://www.w3.org/2000/svg" width="24" height="24"><!--Boxicons v3.0 https://boxicons.com | License  https://docs.boxicons.com/free--><path d="M17.84 3.72a.5.5 0 0 0-.35-.2l-5.43-.6h-.11l-5.43.6c-.14.02-.27.09-.35.2L2.11 9.24a.51.51 0 0 0 .02.63l9.59 11.09.04.04c.16.14.4.12.54-.04l9.59-11.09c.15-.18.17-.44.03-.63l-4.06-5.52Zm2.89 5.84h-1.72c-.22 0-.42.11-.53.29l-4.7 7.38c-.06.09-.18.11-.26.06a.19.19 0 0 1-.07-.24l3.37-6.95c.09-.19.01-.42-.18-.51a.33.33 0 0 0-.17-.04H7.54a.38.38 0 0 0-.34.55l3.37 6.95c.05.09 0 .21-.09.25s-.19.01-.24-.07l-4.7-7.38a.64.64 0 0 0-.53-.29H3.23c-.07 0-.13-.06-.13-.13 0-.05.04-.1.09-.12l1.84-.6c.2-.07.36-.23.41-.43l.84-2.94c.02-.07.09-.11.16-.09.06.02.1.07.09.13l-.18 2.57c-.01.14.09.26.23.27.07 0 .14-.02.19-.07l3.83-3.62s.13-.05.18 0 .05.12 0 .17L8.21 7.86c-.09.11-.07.27.04.36.05.04.1.06.16.06h7.18a.248.248 0 0 0 .19-.41l-2.57-3.16c-.05-.05-.04-.13.01-.18.05-.04.13-.04.17 0l3.83 3.62c.1.1.26.09.36 0 .05-.05.07-.12.07-.19l-.18-2.57c0-.07.05-.13.12-.14.06 0 .12.03.13.09l.84 2.94c.06.2.21.36.41.43l1.79.6c.07.02.1.09.08.16-.02.05-.07.09-.12.09Z" class="b"/></svg>