<svg xmlns="http://www.w3.org/2000/svg" width="24" height="24"><!--Boxicons v3.0 https://boxicons.com | License  https://docs.boxicons.com/free--><path d="m10.09 13.82-1.52.88v1.76l1.52-.88zm1.57-3.35V8.71l-1.53-.88v1.76zm-3.42 1.91-1.52.88 1.52.88 1.52-.88z"/><path d="M15.73 3H8.28a5.27 5.27 0 0 0-5.27 5.27v7.45a5.27 5.27 0 0 0 5.27 5.27h7.45A5.27 5.27 0 0 0 21 15.72V8.27A5.27 5.27 0 0 0 15.73 3m2.59 12.96-2.5 1.44-1.11-.64-2.7 1.56-2.68-1.55-1.09.63-2.5-1.44v-2.88l.78-.45V9.62l2.96-1.71v-.83l2.5-1.44 2.5 1.44v.79l3.02 1.75v2.99l.81.47v2.88Z"/><path d="m13.5 7.27-1.52-.88-1.52.88 1.52.88zm-1.19 3.2 1.52-.88V7.83l-1.52.88zm-5.92 5.11 1.53.88V14.7l-1.53-.88zm9.43-3.2-1.53.88 1.53.88 1.52-.88zm.32 4.08 1.53-.88v-1.76l-1.53.88zm-2.17-.88 1.52.88V14.7l-1.52-.87z"/><path d="m13.32 13.07 2.5-1.44 1.03.6V9.99l-2.37-1.37v1.34l-2.5 1.44-2.5-1.44v-1.3L7.17 9.99v2.26l1.07-.62 2.5 1.44v2.89l-.76.43 2.03 1.18 2.05-1.19-.74-.42z"/></svg>