<svg xmlns="http://www.w3.org/2000/svg" width="24" height="24"><!--Boxicons v3.0 https://boxicons.com | License  https://docs.boxicons.com/free--><path d="M18.5 9.51a4.2 4.2 0 0 1-1.91-1.34A5.77 5.77 0 0 0 12 6a4.72 4.72 0 0 0-5 4 3.23 3.23 0 0 1 3.5-1.49 4.3 4.3 0 0 1 1.91 1.35A5.77 5.77 0 0 0 17 12a4.72 4.72 0 0 0 5-4 3.2 3.2 0 0 1-3.5 1.51m-13 4.98a4.2 4.2 0 0 1 1.91 1.34A5.77 5.77 0 0 0 12 18a4.72 4.72 0 0 0 5-4 3.23 3.23 0 0 1-3.5 1.49 4.3 4.3 0 0 1-1.91-1.35A5.8 5.8 0 0 0 7 12a4.72 4.72 0 0 0-5 4 3.2 3.2 0 0 1 3.5-1.51"/></svg>