<svg xmlns="http://www.w3.org/2000/svg" width="24" height="24"><!--Boxicons v3.0 https://boxicons.com | License  https://docs.boxicons.com/free--><path d="M12.642 8.084c-.364.189-.79.42-1.242.42s-.81-.209-1.066-.413c-.13-.101-.234-.202-.313-.276-.137-.108-.12-.259-.064-.254.094.012.108.136.168.191.08.075.18.172.302.269.243.192.567.38.973.38s.878-.238 1.167-.4c.163-.092.371-.256.541-.381.13-.095.125-.21.232-.198.107.013.028.127-.122.258a3.4 3.4 0 0 1-.576.404"/><path d="M19.649 17.77c-.142-.16-.209-.456-.281-.771s-.153-.654-.411-.874l-.002-.001a1 1 0 0 0-.317-.192c.359-1.065.219-2.126-.145-3.084-.444-1.177-1.222-2.202-1.815-2.903-.664-.838-1.313-1.633-1.301-2.808.021-1.793.197-5.118-2.958-5.122a5 5 0 0 0-.401.017c-3.526.283-2.59 4.008-2.643 5.255-.064.912-.249 1.631-.877 2.523-.736.876-1.774 2.295-2.266 3.771-.232.697-.342 1.407-.241 2.08a2 2 0 0 0-.091.089c-.216.231-.376.511-.555.699-.166.167-.403.229-.664.323s-.547.231-.721.565l-.001.002a1 1 0 0 0-.108.484c0 .154.023.311.046.461.048.313.097.609.032.81-.206.564-.232.954-.087 1.237s.444.409.783.479c.676.141 1.592.106 2.314.489l.062-.117-.061.118c.773.404 1.557.547 2.182.405.454-.104.821-.374 1.011-.789.489-.002 1.025-.209 1.885-.256.583-.047 1.312.207 2.149.16a1 1 0 0 0 .099.264c.324.649.928.946 1.571.896s1.329-.43 1.883-1.089l-.102-.085.102.084c.527-.64 1.403-.905 1.984-1.255.29-.175.525-.395.544-.713.018-.318-.169-.675-.599-1.152m-7.79-11.708c-.003-.234.036-.435.126-.639s.201-.351.358-.47.312-.174.494-.176h.009c.179 0 .332.053.489.167.159.116.274.261.366.463a1.5 1.5 0 0 1 .141.636c.002.235-.038.435-.127.639a1.2 1.2 0 0 1-.18.299l-.074-.033q-.133-.056-.237-.096c-.104-.04-.124-.044-.181-.064.041-.049.122-.108.151-.181a1 1 0 0 0 .072-.347l.002-.016a1 1 0 0 0-.05-.337c-.038-.113-.086-.195-.155-.263s-.139-.099-.223-.101h-.011a.32.32 0 0 0-.217.086.6.6 0 0 0-.174.25 1 1 0 0 0-.072.348l-.001.015a1 1 0 0 0 .014.2 2.5 2.5 0 0 0-.507-.171 2 2 0 0 1-.014-.19zm-2.144.052c-.012-.202.009-.376.064-.556s.13-.311.238-.418a.52.52 0 0 1 .349-.168h.03c.118 0 .225.04.335.127a1 1 0 0 1 .284.389c.076.171.116.343.127.545v.002a1.5 1.5 0 0 1-.002.243l-.068.021c-.128.044-.23.093-.328.158a1 1 0 0 0 .003-.214v-.012a1 1 0 0 0-.068-.274.5.5 0 0 0-.138-.203c-.052-.044-.1-.065-.153-.064l-.017.001c-.061.005-.11.034-.157.092a.54.54 0 0 0-.101.223.9.9 0 0 0-.019.293l.001.012c.01.103.031.189.067.275a.53.53 0 0 0 .166.224c-.059.045-.098.078-.146.113l-.11.081a1 1 0 0 1-.229-.342 1.5 1.5 0 0 1-.128-.546zm.155 1.228c.187-.14.315-.234.402-.298.086-.063.121-.086.148-.112h.001c.14-.132.362-.374.699-.49.115-.04.245-.065.39-.066.275-.001.608.089 1.01.348.247.16.439.174.882.363h.001c.213.087.338.202.399.321q.09.18.012.387c-.103.273-.429.562-.887.705h-.001c-.224.072-.418.233-.647.364a1.45 1.45 0 0 1-.842.217 1.1 1.1 0 0 1-.374-.083 1.2 1.2 0 0 1-.27-.167c-.161-.131-.303-.295-.51-.416h-.002c-.333-.19-.515-.408-.573-.598-.057-.189-.003-.351.162-.475m.131 13.018zc-.047.623-.398.961-.938 1.085-.539.123-1.27 0-1.999-.381h-.001c-.808-.427-1.768-.385-2.384-.514-.308-.064-.509-.161-.602-.341s-.094-.494.102-1.028l.001-.002.001-.002c.097-.299.025-.626-.021-.934-.047-.307-.07-.586.034-.781l.001-.002c.135-.259.332-.352.576-.439.245-.088.534-.157.764-.386l.001-.001.001-.001c.212-.223.371-.503.557-.702.157-.167.314-.279.551-.28h.009q.061 0 .132.011c.314.047.588.268.853.625l.762 1.389h.001c.202.423.631.89.994 1.365.362.475.644.952.607 1.317zm-.063-1.01a7 7 0 0 0-.333-.469 14 14 0 0 0-.229-.293q.227 0 .384-.072a.5.5 0 0 0 .266-.274c.09-.242 0-.583-.288-.973-.29-.39-.778-.83-1.494-1.269-.527-.328-.821-.729-.959-1.165s-.119-.907-.013-1.373c.204-.894.729-1.762 1.063-2.308.09-.066.032.123-.339.811-.332.629-.953 2.081-.103 3.214a6.7 6.7 0 0 1 .538-2.398c.472-1.067 1.456-2.919 1.534-4.395.041.029.18.123.241.158.182.106.316.262.492.403.177.142.396.264.729.283l.093.003c.343 0 .61-.112.833-.239.242-.138.436-.292.618-.351h.001c.387-.122.694-.335.869-.585.302 1.186 1.001 2.897 1.45 3.733.239.443.715 1.385.92 2.52q.195-.005.427.054c.537-1.393-.455-2.892-.909-3.31-.184-.178-.192-.258-.102-.254.492.436 1.139 1.311 1.374 2.3.107.451.13.925.016 1.393q.084.034.171.076c.862.42 1.181.785 1.027 1.283q-.076-.002-.148 0h-.014c.125-.395-.151-.687-.889-1.02-.764-.336-1.373-.303-1.476.379a1 1 0 0 0-.017.109q-.085.03-.172.076c-.358.197-.555.553-.664.99s-.14.964-.17 1.558c-.019.298-.141.702-.266 1.129-1.249.897-2.986 1.283-4.461.276m9.628.057c-.524.317-1.456.593-2.05 1.313-.517.615-1.146.952-1.7.996-.555.044-1.033-.186-1.315-.752v-.001l-.001-.003c-.175-.333-.102-.858.045-1.412s.359-1.123.388-1.585v-.001c.03-.592.063-1.11.163-1.509s.256-.669.533-.821l.039-.02c.031.513.285 1.036.734 1.149.491.129 1.199-.292 1.498-.636l.175-.007c.262-.006.481.009.707.205v.001h.001c.173.146.255.423.326.733s.128.647.342.888h.001c.41.456.542.764.531.96-.011.198-.153.344-.417.502"/><path d="M11.738 6.762c.015.048.093.04.138.063.04.02.071.065.116.066.042.001.107-.015.113-.057.008-.056-.073-.091-.126-.111-.067-.026-.153-.039-.216-.004-.014.008-.03.027-.025.043m-.46 0c-.016.048-.094.04-.139.063-.039.02-.071.065-.115.066-.042.001-.108-.015-.114-.057-.007-.056.074-.091.126-.111.067-.026.153-.039.217-.004.015.008.03.027.025.043"/></svg>