<svg xmlns="http://www.w3.org/2000/svg" width="24" height="24"><!--Boxicons v3.0 https://boxicons.com | License  https://docs.boxicons.com/free--><path d="M16.39 11.27c-.09-.04-.17-.08-.26-.12-.15-2.84-1.71-4.47-4.32-4.49h-.04c-1.56 0-2.86.67-3.66 1.88l1.44.98c.6-.91 1.53-1.1 2.22-1.1h.02c.86 0 1.51.26 1.93.74.31.35.51.84.61 1.46-.76-.13-1.59-.17-2.47-.12-2.48.14-4.08 1.59-3.97 3.6.05 1.02.56 1.9 1.43 2.47.73.48 1.68.72 2.66.67 1.3-.07 2.32-.57 3.03-1.47.54-.69.88-1.58 1.03-2.7.62.37 1.08.86 1.33 1.45.43 1 .46 2.65-.89 4-1.18 1.18-2.6 1.69-4.74 1.7-2.38-.02-4.17-.78-5.34-2.26-1.09-1.39-1.66-3.4-1.68-5.97.02-2.57.59-4.58 1.68-5.97 1.17-1.49 2.97-2.25 5.34-2.26 2.39.02 4.22.78 5.43 2.28.59.73 1.04 1.65 1.34 2.73l1.68-.45c-.36-1.32-.92-2.46-1.69-3.4-1.56-1.91-3.83-2.89-6.76-2.91h-.01c-2.92.02-5.17 1-6.68 2.92C3.71 6.64 3.01 9.02 2.99 12c.02 3 .72 5.37 2.06 7.08C6.56 21 8.81 21.98 11.73 22h.01c2.6-.02 4.43-.7 5.94-2.21 1.98-1.97 1.92-4.45 1.26-5.97-.47-1.09-1.36-1.97-2.58-2.56Zm-4.49 4.22c-1.09.06-2.22-.43-2.27-1.47-.04-.78.55-1.64 2.34-1.74.2-.01.41-.02.6-.02.65 0 1.26.06 1.81.18-.21 2.57-1.41 2.99-2.48 3.05"/></svg>