<svg xmlns="http://www.w3.org/2000/svg" width="24" height="24"><!--Boxicons v3.0 https://boxicons.com | License  https://docs.boxicons.com/free--><path d="M2 12c0 .4.11.76.29 1.08l3.5 6.06c.36.61.9 1.12 1.59 1.34 1.3.43 2.71-.11 3.39-1.26l.83-1.48-3.32-5.78 3.54-6.1.83-1.44c.25-.43.58-.79.97-1.08H8.2c-.94 0-1.84.51-2.31 1.34l-3.61 6.25c-.18.32-.29.69-.29 1.08Z"/><path d="M22 12c0-.4-.11-.76-.29-1.08l-3.54-6.14c-.69-1.19-2.09-1.7-3.39-1.26-.69.22-1.23.72-1.59 1.34l-.83 1.37 3.36 5.78-3.54 6.1-.83 1.48c-.25.43-.58.79-.97 1.08h5.45c.94 0 1.84-.51 2.31-1.34l3.61-6.25c.14-.32.25-.69.25-1.08"/></svg>