<svg xmlns="http://www.w3.org/2000/svg" width="24" height="24"><!--Boxicons v3.0 https://boxicons.com | License  https://docs.boxicons.com/free--><path d="M12.043 6.925a4.985 4.985 0 0 0-4.98 4.979c-.001.94.263 1.856.761 2.649l.118.188-.503 1.837 1.885-.494.181.108a4.97 4.97 0 0 0 2.535.693h.001a4.986 4.986 0 0 0 4.979-4.978 4.95 4.95 0 0 0-1.456-3.522 4.95 4.95 0 0 0-3.521-1.46m2.928 7.118c-.125.35-.723.668-1.01.711a2.04 2.04 0 0 1-.943-.059 9 9 0 0 1-.853-.315c-1.502-.648-2.482-2.159-2.558-2.26-.074-.1-.61-.812-.61-1.548 0-.737.386-1.099.523-1.249a.55.55 0 0 1 .4-.186c.1 0 .199.001.287.005.092.004.215-.035.336.257.125.3.425 1.036.462 1.111s.062.162.013.262c-.05.101-.074.162-.15.25-.074.088-.157.195-.224.263-.075.074-.153.155-.066.305.088.149.388.64.832 1.037.572.51 1.055.667 1.204.743.15.074.237.063.325-.038.087-.101.374-.437.474-.586.1-.15.199-.125.337-.076.137.051.873.412 1.022.487.148.074.249.112.287.175.036.062.036.361-.088.711"/><path d="M20 3H4a1 1 0 0 0-1 1v16a1 1 0 0 0 1 1h16a1 1 0 0 0 1-1V4a1 1 0 0 0-1-1m-7.96 14.896h-.002a6 6 0 0 1-2.862-.729L6 18l.85-3.104a5.99 5.99 0 0 1 5.19-8.983 5.95 5.95 0 0 1 4.238 1.757 5.95 5.95 0 0 1 1.751 4.237 6 6 0 0 1-5.989 5.989"/></svg>