<svg xmlns="http://www.w3.org/2000/svg" width="24" height="24"><!--Boxicons v3.0 https://boxicons.com | License  https://docs.boxicons.com/free--><path d="M19.891 7.788a9 9 0 0 1 1.099 4.313 8.99 8.99 0 0 1-4.47 7.771l2.746-7.939c.513-1.282.684-2.309.684-3.219a7 7 0 0 0-.059-.926m-6.651.087a14 14 0 0 0 1.026-.088c.485-.063.428-.775-.056-.749 0 0-1.463.112-2.4.112-.887 0-2.375-.125-2.375-.125-.487-.024-.55.713-.061.738 0 0 .449.052.938.075l1.399 3.838-1.975 5.899-3.274-9.724a17 17 0 0 0 1.028-.083c.487-.063.43-.775-.055-.747 0 0-1.455.115-2.395.115-.167 0-.365-.007-.575-.013C6.093 4.726 8.862 3.113 12 3.113c2.341 0 4.471.894 6.071 2.36-.038-.002-.076-.008-.117-.008-.883 0-1.51.77-1.51 1.596 0 .741.427 1.369.883 2.108.343.601.742 1.37.742 2.481 0 .763-.295 1.662-.685 2.899l-.896 2.987-3.25-9.675zM12 21.087a9 9 0 0 1-2.54-.364l2.697-7.838 2.763 7.572q.031.066.065.124a9 9 0 0 1-2.985.508m-8.99-8.988a8.9 8.9 0 0 1 .778-3.658l4.287 11.749a8.99 8.99 0 0 1-5.065-8.091m8.99-10c-5.513 0-10 4.487-10 10s4.487 10 10 10 10-4.487 10-10-4.487-10-10-10"/></svg>