<svg xmlns="http://www.w3.org/2000/svg" width="24" height="24"><!--Boxicons v3.0 https://boxicons.com | License  https://docs.boxicons.com/free--><path d="M17.68 14.69c-.7 0-1.31.37-1.83.69-.97.6-1.45.56-1.45.56l-.02-.03c-.07-.11.31-1.08-.11-2.23-.46-1.26-1.18-1.57-1.12-1.66.25-.42.86-1.08 1.11-2.32.15-.75.11-1.98-.22-2.63-.06-.12-.61.2-.61.2s-.51-1.14-.66-1.24c-.46-.3-.97 1.23-.97 1.23s-1.06-.17-1.89.73c-.17.18-.39.28-.62.37-.07.02-.15.02-.35.56-.31.83.52 1.75.52 1.75s-.99.7-1.36 1.57c-.41.95-.28 1.88-.28 1.88s-.7.61-.75 1.24c-.04.55.12 1 .29 1.26.19.29.42.15.42.15s-.47.54-.03.78c.4.21 1.07.33 1.42-.03.26-.26.31-.83.41-1.07.02-.05.1.09.17.17.08.08.22.16.22.16s-.63.27-.37.89c.08.2.39.34.89.33.19 0 2.22-.12 2.76-.25.31-.07.42-.24.42-.24s1.31-.36 2.5-1.13c.76-.5 1.08-.63 1.69-.78.51-.12.47-.92-.2-.9Z"/><path d="M12 2C6.48 2 2 6.48 2 12s4.48 10 10 10 10-4.48 10-10S17.52 2 12 2m6.02 14.17c-.54.13-.79.23-1.52.7-1.03.66-2.12 1.03-2.51 1.16-.12.1-.31.22-.59.29-.61.15-2.72.26-2.89.26h-.04c-.65 0-1.01-.2-1.21-.41-.55.27-1.26.16-1.77-.11a.9.9 0 0 1-.48-.63.9.9 0 0 1 0-.33c-.05-.05-.09-.1-.13-.16-.14-.21-.44-.78-.38-1.62.05-.6.46-1.14.73-1.42-.01-.4.02-1.13.34-1.88.25-.61.74-1.12 1.1-1.45-.27-.45-.54-1.14-.27-1.84.19-.5.34-.78.68-.9.17-.06.32-.13.41-.22.65-.71 1.42-.88 1.92-.92.03-.08.07-.15.1-.24.26-.55.53-.86.85-.97a.78.78 0 0 1 .71.08c.1.07.24.15.63.96.26-.07.39-.03.46-.02.17.05.31.16.39.31.4.76.45 2.13.28 3-.2 1.03-.63 1.69-.94 2.15.27.27.65.75.93 1.52.23.64.26 1.23.23 1.68.14-.07.31-.15.5-.27.49-.31 1.24-.76 2.13-.78.59 0 1.06.37 1.13.92.07.53-.26 1.01-.79 1.14"/></svg>